<svg width="181" height="40" viewBox="0 0 181 40" fill="none" xmlns="http://www.w3.org/2000/svg">
<rect x="2" y="2" width="36" height="36" rx="6" stroke="#FF006B" stroke-width="4"/>
<rect x="7" y="22" width="20" height="4" rx="2" fill="#FF006B"/>
<rect x="2" y="15" width="36" height="4" rx="2" fill="#FF006B"/>
<rect x="7" y="29" width="26" height="4" rx="2" fill="#FF006B"/>
<path d="M72.4318 19.7273C72.4318 21.2945 72.1383 22.6368 71.5511 23.7543C70.9688 24.867 70.1733 25.7192 69.1648 26.3111C68.161 26.9029 67.0223 27.1989 65.7486 27.1989C64.4749 27.1989 63.3338 26.9029 62.3253 26.3111C61.3215 25.7145 60.526 24.8598 59.9389 23.7472C59.3565 22.6297 59.0653 21.2898 59.0653 19.7273C59.0653 18.16 59.3565 16.8201 59.9389 15.7074C60.526 14.59 61.3215 13.7353 62.3253 13.1435C63.3338 12.5516 64.4749 12.2557 65.7486 12.2557C67.0223 12.2557 68.161 12.5516 69.1648 13.1435C70.1733 13.7353 70.9688 14.59 71.5511 15.7074C72.1383 16.8201 72.4318 18.16 72.4318 19.7273ZM69.7827 19.7273C69.7827 18.6241 69.6098 17.6937 69.2642 16.9361C68.9233 16.1738 68.4498 15.5985 67.8438 15.2102C67.2377 14.8172 66.5393 14.6207 65.7486 14.6207C64.9579 14.6207 64.2595 14.8172 63.6534 15.2102C63.0473 15.5985 62.5715 16.1738 62.2259 16.9361C61.8849 17.6937 61.7145 18.6241 61.7145 19.7273C61.7145 20.8305 61.8849 21.7633 62.2259 22.5256C62.5715 23.2831 63.0473 23.8584 63.6534 24.2514C64.2595 24.6397 64.9579 24.8338 65.7486 24.8338C66.5393 24.8338 67.2377 24.6397 67.8438 24.2514C68.4498 23.8584 68.9233 23.2831 69.2642 22.5256C69.6098 21.7633 69.7827 20.8305 69.7827 19.7273ZM83.5522 12.0568L84.4471 13.7188C84.1299 13.9934 83.7747 14.1922 83.3817 14.3153C82.9888 14.4384 82.5271 14.5189 81.9968 14.5568C81.4712 14.59 80.8462 14.6136 80.1218 14.6278C79.3074 14.6468 78.6422 14.8007 78.1261 15.0895C77.61 15.3783 77.2146 15.8163 76.94 16.4034C76.6654 16.9858 76.4854 17.7292 76.4002 18.6335H76.521C76.8619 17.9659 77.3401 17.4569 77.9556 17.1065C78.5711 16.7562 79.2932 16.581 80.1218 16.581C81.0262 16.581 81.824 16.7846 82.5153 17.1918C83.2113 17.5942 83.7534 18.179 84.1417 18.946C84.5347 19.7131 84.7312 20.6411 84.7312 21.7301C84.7312 22.8523 84.5205 23.8253 84.0991 24.6491C83.6777 25.4683 83.0787 26.1004 82.3022 26.5455C81.5304 26.9905 80.6142 27.2131 79.5536 27.2131C78.4978 27.2131 77.5792 26.9834 76.7979 26.5241C76.0214 26.0601 75.4201 25.3759 74.994 24.4716C74.5726 23.5625 74.3619 22.4427 74.3619 21.1122V20.1321C74.3619 17.5658 74.8401 15.6506 75.7965 14.3864C76.753 13.1222 78.171 12.4782 80.0508 12.4545C80.6095 12.4451 81.109 12.4427 81.5494 12.4474C81.9944 12.4522 82.3827 12.4309 82.7141 12.3835C83.0456 12.3362 83.3249 12.2273 83.5522 12.0568ZM79.5678 25.1534C80.0934 25.1534 80.5479 25.0185 80.9315 24.7486C81.315 24.474 81.6085 24.0857 81.8121 23.5838C82.0205 23.0819 82.1246 22.4877 82.1246 21.8011C82.1246 21.1241 82.0205 20.5488 81.8121 20.0753C81.6038 19.5971 81.3079 19.2325 80.9244 18.9815C80.5408 18.7306 80.0839 18.6051 79.5536 18.6051C79.1559 18.6051 78.7984 18.6761 78.4812 18.8182C78.1639 18.9602 77.8941 19.1686 77.6715 19.4432C77.449 19.7178 77.2785 20.0516 77.1602 20.4446C77.0418 20.8376 76.9779 21.2898 76.9684 21.8011C76.9684 22.8286 77.2004 23.6454 77.6644 24.2514C78.1284 24.8527 78.7629 25.1534 79.5678 25.1534ZM88.4652 16.0909V18.2074H85.5817V16.0909H88.4652ZM90.2124 19.642H93.4226C94.8146 19.642 95.8918 19.9806 96.6541 20.6577C97.4212 21.3348 97.8047 22.2225 97.8047 23.321C97.8047 24.036 97.6319 24.6705 97.2862 25.2244C96.9453 25.7784 96.4482 26.214 95.7947 26.5312C95.1413 26.8438 94.3506 27 93.4226 27H88.4652V16.0909H90.951V24.8906H93.4226C93.9813 24.8906 94.4406 24.7486 94.8004 24.4645C95.1603 24.1757 95.3426 23.8063 95.3473 23.3565C95.3426 22.883 95.1603 22.4972 94.8004 22.1989C94.4406 21.9006 93.9813 21.7514 93.4226 21.7514H90.2124V19.642ZM106.453 27V18.179H104.124C103.532 18.179 103.078 18.3163 102.76 18.5909C102.443 18.8655 102.287 19.2064 102.292 19.6136C102.287 20.0208 102.436 20.357 102.739 20.6222C103.042 20.8873 103.475 21.0199 104.039 21.0199H107.263V22.8949H104.039C103.167 22.8949 102.415 22.7576 101.78 22.483C101.146 22.2083 100.658 21.8201 100.317 21.3182C99.9762 20.8163 99.8058 20.2292 99.8058 19.5568C99.8058 18.8561 99.9786 18.2476 100.324 17.7315C100.675 17.2107 101.172 16.8082 101.816 16.5241C102.464 16.2353 103.234 16.0909 104.124 16.0909H108.861V27H106.453ZM99.408 27L102.455 21.4034H104.99L101.936 27H99.408ZM111.45 27V16.0909H116.031C117.324 16.0909 118.344 16.349 119.092 16.8651C119.845 17.3812 120.221 18.1009 120.221 19.0241C120.221 19.6349 120.008 20.1345 119.582 20.5227C119.161 20.9062 118.585 21.1643 117.856 21.2969C118.429 21.3442 118.931 21.4886 119.362 21.7301C119.797 21.9716 120.138 22.2888 120.385 22.6818C120.631 23.0748 120.754 23.527 120.754 24.0384C120.754 24.6397 120.595 25.1629 120.278 25.608C119.966 26.0483 119.509 26.3916 118.907 26.6378C118.311 26.8793 117.586 27 116.734 27H111.45ZM113.858 24.9759H116.734C117.208 24.9759 117.579 24.8646 117.849 24.642C118.119 24.4148 118.254 24.107 118.254 23.7188C118.254 23.2689 118.119 22.9162 117.849 22.6605C117.579 22.4001 117.208 22.2699 116.734 22.2699H113.858V24.9759ZM113.858 20.608H116.081C116.431 20.608 116.732 20.5582 116.983 20.4588C117.234 20.3546 117.425 20.2102 117.558 20.0256C117.69 19.8362 117.757 19.6113 117.757 19.3509C117.757 18.9768 117.603 18.6832 117.295 18.4702C116.992 18.2571 116.571 18.1506 116.031 18.1506H113.858V20.608ZM122.123 27L122.109 24.8835H122.485C122.769 24.8835 123.008 24.8196 123.202 24.6918C123.397 24.5639 123.558 24.3509 123.685 24.0526C123.813 23.7495 123.913 23.3423 123.984 22.831C124.055 22.3196 124.104 21.6828 124.133 20.9205L124.325 16.0909H132.279V27H129.793V18.2003H126.661L126.491 21.7159C126.448 22.625 126.346 23.4134 126.185 24.081C126.029 24.7438 125.807 25.2907 125.518 25.7216C125.234 26.1525 124.876 26.4744 124.445 26.6875C124.014 26.8958 123.505 27 122.918 27H122.123ZM139.697 27.2131C138.604 27.2131 137.659 26.9858 136.864 26.5312C136.073 26.072 135.464 25.4233 135.038 24.5852C134.612 23.7424 134.399 22.7505 134.399 21.6094C134.399 20.4872 134.612 19.5024 135.038 18.6548C135.469 17.8026 136.071 17.1397 136.842 16.6662C137.614 16.188 138.521 15.9489 139.562 15.9489C140.235 15.9489 140.869 16.0578 141.466 16.2756C142.067 16.4886 142.598 16.8201 143.057 17.2699C143.521 17.7197 143.885 18.2926 144.151 18.9886C144.416 19.6799 144.548 20.5038 144.548 21.4602V22.2486H135.607V20.5156H142.084C142.079 20.0232 141.973 19.5852 141.764 19.2017C141.556 18.8134 141.265 18.508 140.891 18.2855C140.521 18.063 140.09 17.9517 139.598 17.9517C139.072 17.9517 138.611 18.0795 138.213 18.3352C137.815 18.5862 137.505 18.9176 137.283 19.3295C137.065 19.7367 136.954 20.1842 136.949 20.6719V22.1847C136.949 22.8191 137.065 23.3636 137.297 23.8182C137.529 24.268 137.853 24.6136 138.27 24.8551C138.687 25.0919 139.174 25.2102 139.733 25.2102C140.107 25.2102 140.446 25.1581 140.749 25.054C141.052 24.9451 141.314 24.7865 141.537 24.5781C141.759 24.3698 141.928 24.1117 142.041 23.804L144.442 24.0739C144.29 24.7083 144.001 25.2623 143.575 25.7358C143.154 26.2045 142.614 26.5691 141.956 26.8295C141.298 27.0852 140.545 27.2131 139.697 27.2131ZM154.216 20.4801V22.5895H148.407V20.4801H154.216ZM149.202 16.0909V27H146.723V16.0909H149.202ZM155.9 16.0909V27H153.428V16.0909H155.9ZM160.979 23.5199L165.347 16.0909H167.989V27H165.504V19.5639L161.15 27H158.501V16.0909H160.979V23.5199ZM177.078 27V18.179H174.749C174.157 18.179 173.703 18.3163 173.385 18.5909C173.068 18.8655 172.912 19.2064 172.917 19.6136C172.912 20.0208 173.061 20.357 173.364 20.6222C173.667 20.8873 174.1 21.0199 174.664 21.0199H177.888V22.8949H174.664C173.792 22.8949 173.04 22.7576 172.405 22.483C171.771 22.2083 171.283 21.8201 170.942 21.3182C170.601 20.8163 170.431 20.2292 170.431 19.5568C170.431 18.8561 170.604 18.2476 170.949 17.7315C171.3 17.2107 171.797 16.8082 172.441 16.5241C173.089 16.2353 173.859 16.0909 174.749 16.0909H179.486V27H177.078ZM170.033 27L173.08 21.4034H175.615L172.561 27H170.033Z" fill="#242424"/>
</svg>
